<svg width="1440" height="970" viewBox="0 0 1440 970" fill="none" xmlns="http://www.w3.org/2000/svg">
          <g opacity="0.2">
            <path
              fill-rule="evenodd"
              clip-rule="evenodd"
              d="M-84.9179 483.28V443.738H-45.4007V483.28H-44.3874V443.738H-4.8665V483.28H-3.85313V443.738H35.6715V483.28H36.6848V443.738H76.2057V483.28H77.2191V443.738H116.74V483.28H117.753V443.738H157.274V483.28H158.288V443.738H197.809V483.28H198.822V443.738H238.339V483.28H239.352V443.738H278.873V483.28H279.887V443.738H319.411V483.28H320.425V443.738H359.945V483.28H360.959V443.738H400.48V483.28H401.493V443.738H441.014V483.28H442.027V443.738H481.548V483.28H482.562V443.738H522.079V483.28H523.092V443.738H562.613V483.28H563.626V443.738H603.151V483.28H604.164V443.738H643.685V483.28H644.699V443.738H684.22V483.28H685.233V443.738H725.767V442.724H685.233V403.178H725.767V402.164H685.233V362.614H725.767V361.6H685.233V322.054H725.767V321.04H685.233V281.494H725.767V280.48H685.233V240.934H725.767V239.92H685.233V200.374H725.767V199.36H685.233V159.818H725.767V158.804H685.233V119.258H725.767V118.244H685.233V78.694H725.767V77.68H685.233V38.134H725.767V37.12H685.233V-2.426H725.767V-3.44H685.233V-43.9995H684.22V-3.44H644.699V-44H643.685V-3.44H604.164V-43.9995H603.151V-3.44H563.626V-44H562.613V-3.44H523.092V-43.9995H522.079V-3.44H482.562V-44H481.548V-3.44H442.027V-43.9995H441.014V-3.44H401.493V-43.9995H400.48V-3.44H360.959V-44H359.945V-3.44H320.425V-43.9995H319.411V-3.44H279.887V-44H278.873V-3.44H239.352V-43.9995H238.339V-3.44H198.822V-44H197.809V-3.44H158.288V-43.9995H157.274V-3.44H117.753V-43.9995H116.74V-3.44H77.2191V-44H76.2057V-3.44H36.6848V-43.9995H35.6715V-3.44H-3.85313V-44H-4.8665V-3.44H-44.3874V-43.9995H-45.4007V-3.44H-84.9179V-44H-85.9313V-3.44H-125.452V-43.9995H-126.466V-3.44H-167V-2.426H-126.466V37.12H-167V38.134H-126.466V77.68H-167V78.694H-126.466V118.244H-167V119.258H-126.466V158.804H-167V159.818H-126.466V199.36H-167V200.374H-126.466V239.92H-167V240.934H-126.466V280.48H-167V281.494H-126.466V321.04H-167V322.054H-126.466V361.6H-167V362.614H-126.466V402.164H-167V403.178H-126.466V442.724H-167V443.738H-126.466V483.28H-125.452V443.738H-85.9313V483.28H-84.9179ZM-45.4007 442.724H-84.9179V403.178H-45.4007V442.724ZM-45.4007 402.164H-84.9179V362.614H-45.4007V402.164ZM-85.9313 402.164V362.614H-125.452V402.164H-85.9313ZM-45.4007 361.6H-84.9179V322.054H-45.4007V361.6ZM-85.9313 361.6V322.054H-125.452V361.6H-85.9313ZM-45.4007 321.04H-84.9179V281.494H-45.4007V321.04ZM-85.9313 321.04V281.494H-125.452V321.04H-85.9313ZM-45.4007 280.48H-84.9179V240.934H-45.4007V280.48ZM-85.9313 280.48V240.934H-125.452V280.48H-85.9313ZM-45.4007 239.92H-84.9179V200.374H-45.4007V239.92ZM-85.9313 239.92V200.374H-125.452V239.92H-85.9313ZM-45.4007 199.36H-84.9179V159.818H-45.4007V199.36ZM-85.9313 199.36V159.818H-125.452V199.36H-85.9313ZM-45.4007 158.804H-84.9179V119.258H-45.4007V158.804ZM-85.9313 158.804V119.258H-125.452V158.804H-85.9313ZM-45.4007 118.244H-84.9179V78.694H-45.4007V118.244ZM-85.9313 118.244V78.694H-125.452V118.244H-85.9313ZM-45.4007 77.68H-84.9179V38.134H-45.4007V77.68ZM-85.9313 77.68V38.134H-125.452V77.68H-85.9313ZM-45.4007 37.12H-84.9179V-2.426H-45.4007V37.12ZM-85.9313 37.12V-2.426H-125.452V37.12H-85.9313ZM-44.3874 37.12V-2.426H-4.8665V37.12H-44.3874ZM-3.85313 37.12V-2.426H35.6715V37.12H-3.85313ZM36.6848 37.12V-2.426H76.2057V37.12H36.6848ZM77.2191 37.12V-2.426H116.74V37.12H77.2191ZM117.753 37.12V-2.426H157.274V37.12H117.753ZM158.288 37.12V-2.426H197.809V37.12H158.288ZM198.822 37.12V-2.426H238.339V37.12H198.822ZM239.352 37.12V-2.426H278.873V37.12H239.352ZM279.887 37.12V-2.426H319.411V37.12H279.887ZM320.425 37.12V-2.426H359.945V37.12H320.425ZM360.959 37.12V-2.426H400.48V37.12H360.959ZM401.493 37.12V-2.426H441.014V37.12H401.493ZM442.027 37.12V-2.426H481.548V37.12H442.027ZM482.562 37.12V-2.426H522.079V37.12H482.562ZM523.092 37.12V-2.426H562.613V37.12H523.092ZM563.626 37.12V-2.426H603.151V37.12H563.626ZM604.164 37.12V-2.426H643.685V37.12H604.164ZM644.699 37.12V-2.426H684.22V37.12H644.699ZM644.699 38.134H684.22V77.68H644.699V38.134ZM644.699 78.694H684.22V118.244H644.699V78.694ZM644.699 119.258H684.22V158.804H644.699V119.258ZM644.699 159.818H684.22V199.36H644.699V159.818ZM644.699 200.374H684.22V239.92H644.699V200.374ZM644.699 240.934H684.22V280.48H644.699V240.934ZM644.699 281.494H684.22V321.04H644.699V281.494ZM644.699 322.054H684.22V361.6H644.699V322.054ZM644.699 362.614H684.22V402.164H644.699V362.614ZM644.699 403.178H684.22V442.724H644.699V403.178ZM643.685 403.178V442.724H604.164V403.178H643.685ZM603.151 403.178V442.724H563.626V403.178H603.151ZM562.613 403.178V442.724H523.092V403.178H562.613ZM522.079 403.178V442.724H482.562V403.178H522.079ZM481.548 403.178V442.724H442.027V403.178H481.548ZM441.014 403.178V442.724H401.493V403.178H441.014ZM400.48 403.178V442.724H360.959V403.178H400.48ZM359.945 403.178V442.724H320.425V403.178H359.945ZM319.411 403.178V442.724H279.887V403.178H319.411ZM278.873 403.178V442.724H239.352V403.178H278.873ZM238.339 403.178V442.724H198.822V403.178H238.339ZM197.809 403.178V442.724H158.288V403.178H197.809ZM157.274 403.178V442.724H117.753V403.178H157.274ZM116.74 403.178V442.724H77.2191V403.178H116.74ZM76.2057 403.178V442.724H36.6848V403.178H76.2057ZM35.6715 403.178V442.724H-3.85313V403.178H35.6715ZM-4.8665 403.178V442.724H-44.3874V403.178H-4.8665ZM-4.8665 402.164H-44.3874V362.614H-4.8665V402.164ZM-4.8665 361.6H-44.3874V322.054H-4.8665V361.6ZM-4.8665 321.04H-44.3874V281.494H-4.8665V321.04ZM-4.8665 280.48H-44.3874V240.934H-4.8665V280.48ZM-4.8665 239.92H-44.3874V200.374H-4.8665V239.92ZM-4.8665 199.36H-44.3874V159.818H-4.8665V199.36ZM-4.8665 158.804H-44.3874V119.258H-4.8665V158.804ZM-4.8665 118.244H-44.3874V78.694H-4.8665V118.244ZM-4.8665 77.68H-44.3874V38.134H-4.8665V77.68ZM-3.85313 77.68V38.134H35.6715V77.68H-3.85313ZM36.6848 77.68V38.134H76.2057V77.68H36.6848ZM77.2191 77.68V38.134H116.74V77.68H77.2191ZM117.753 77.68V38.134H157.274V77.68H117.753ZM158.288 77.68V38.134H197.809V77.68H158.288ZM198.822 77.68V38.134H238.339V77.68H198.822ZM239.352 77.68V38.134H278.873V77.68H239.352ZM279.887 77.68V38.134H319.411V77.68H279.887ZM320.425 77.68V38.134H359.945V77.68H320.425ZM360.959 77.68V38.134H400.48V77.68H360.959ZM401.493 77.68V38.134H441.014V77.68H401.493ZM442.027 77.68V38.134H481.548V77.68H442.027ZM482.562 77.68V38.134H522.079V77.68H482.562ZM523.092 77.68V38.134H562.613V77.68H523.092ZM563.626 77.68V38.134H603.151V77.68H563.626ZM604.164 77.68V38.134H643.685V77.68H604.164ZM604.164 78.694H643.685V118.244H604.164V78.694ZM604.164 119.258H643.685V158.804H604.164V119.258ZM604.164 159.818H643.685V199.36H604.164V159.818ZM604.164 200.374H643.685V239.92H604.164V200.374ZM604.164 240.934H643.685V280.48H604.164V240.934ZM604.164 281.494H643.685V321.04H604.164V281.494ZM604.164 322.054H643.685V361.6H604.164V322.054ZM604.164 362.614H643.685V402.164H604.164V362.614ZM603.151 362.614V402.164H563.626V362.614H603.151ZM562.613 362.614V402.164H523.092V362.614H562.613ZM522.079 362.614V402.164H482.562V362.614H522.079ZM481.548 362.614V402.164H442.027V362.614H481.548ZM441.014 362.614V402.164H401.493V362.614H441.014ZM400.48 362.614V402.164H360.959V362.614H400.48ZM359.945 362.614V402.164H320.425V362.614H359.945ZM319.411 362.614V402.164H279.887V362.614H319.411ZM278.873 362.614V402.164H239.352V362.614H278.873ZM238.339 362.614V402.164H198.822V362.614H238.339ZM197.809 362.614V402.164H158.288V362.614H197.809ZM157.274 362.614V402.164H117.753V362.614H157.274ZM116.74 362.614V402.164H77.2191V362.614H116.74ZM76.2057 362.614V402.164H36.6848V362.614H76.2057ZM35.6715 362.614V402.164H-3.85313V362.614H35.6715ZM35.6715 361.6H-3.85313V322.054H35.6715V361.6ZM35.6715 321.04H-3.85313V281.494H35.6715V321.04ZM35.6715 280.48H-3.85313V240.934H35.6715V280.48ZM35.6715 239.92H-3.85313V200.374H35.6715V239.92ZM35.6715 199.36H-3.85313V159.818H35.6715V199.36ZM35.6715 158.804H-3.85313V119.258H35.6715V158.804ZM35.6715 118.244H-3.85313V78.694H35.6715V118.244ZM36.6848 118.244V78.694H76.2057V118.244H36.6848ZM77.2191 118.244V78.694H116.74V118.244H77.2191ZM117.753 118.244V78.694H157.274V118.244H117.753ZM158.288 118.244V78.694H197.809V118.244H158.288ZM198.822 118.244V78.694H238.339V118.244H198.822ZM239.352 118.244V78.694H278.873V118.244H239.352ZM279.887 118.244V78.694H319.411V118.244H279.887ZM320.425 118.244V78.694H359.945V118.244H320.425ZM360.959 118.244V78.694H400.48V118.244H360.959ZM401.493 118.244V78.694H441.014V118.244H401.493ZM442.027 118.244V78.694H481.548V118.244H442.027ZM482.562 118.244V78.694H522.079V118.244H482.562ZM523.092 118.244V78.694H562.613V118.244H523.092ZM563.626 118.244V78.694H603.151V118.244H563.626ZM563.626 119.258H603.151V158.804H563.626V119.258ZM563.626 159.818H603.151V199.36H563.626V159.818ZM563.626 200.374H603.151V239.92H563.626V200.374ZM563.626 240.934H603.151V280.48H563.626V240.934ZM563.626 281.494H603.151V321.04H563.626V281.494ZM563.626 322.054H603.151V361.6H563.626V322.054ZM562.613 322.054V361.6H523.092V322.054H562.613ZM522.079 322.054V361.6H482.562V322.054H522.079ZM481.548 322.054V361.6H442.027V322.054H481.548ZM441.014 322.054V361.6H401.493V322.054H441.014ZM400.48 322.054V361.6H360.959V322.054H400.48ZM359.945 322.054V361.6H320.425V322.054H359.945ZM319.411 322.054V361.6H279.887V322.054H319.411ZM278.873 322.054V361.6H239.352V322.054H278.873ZM238.339 322.054V361.6H198.822V322.054H238.339ZM197.809 322.054V361.6H158.288V322.054H197.809ZM157.274 322.054V361.6H117.753V322.054H157.274ZM116.74 322.054V361.6H77.2191V322.054H116.74ZM76.2057 322.054V361.6H36.6848V322.054H76.2057ZM76.2057 321.04H36.6848V281.494H76.2057V321.04ZM76.2057 280.48H36.6848V240.934H76.2057V280.48ZM76.2057 239.92H36.6848V200.374H76.2057V239.92ZM76.2057 199.36H36.6848V159.818H76.2057V199.36ZM76.2057 158.804H36.6848V119.258H76.2057V158.804ZM77.2191 158.804V119.258H116.74V158.804H77.2191ZM117.753 158.804V119.258H157.274V158.804H117.753ZM158.288 158.804V119.258H197.809V158.804H158.288ZM198.822 158.804V119.258H238.339V158.804H198.822ZM239.352 158.804V119.258H278.873V158.804H239.352ZM279.887 158.804V119.258H319.411V158.804H279.887ZM320.425 158.804V119.258H359.945V158.804H320.425ZM360.959 158.804V119.258H400.48V158.804H360.959ZM401.493 158.804V119.258H441.014V158.804H401.493ZM442.027 158.804V119.258H481.548V158.804H442.027ZM482.562 158.804V119.258H522.079V158.804H482.562ZM523.092 158.804V119.258H562.613V158.804H523.092ZM523.092 159.818H562.613V199.36H523.092V159.818ZM523.092 200.374H562.613V239.92H523.092V200.374ZM523.092 240.934H562.613V280.48H523.092V240.934ZM523.092 281.494H562.613V321.04H523.092V281.494ZM522.079 281.494V321.04H482.562V281.494H522.079ZM481.548 281.494V321.04H442.027V281.494H481.548ZM441.014 281.494V321.04H401.493V281.494H441.014ZM400.48 281.494V321.04H360.959V281.494H400.48ZM359.945 281.494V321.04H320.425V281.494H359.945ZM319.411 281.494V321.04H279.887V281.494H319.411ZM278.873 281.494V321.04H239.352V281.494H278.873ZM238.339 281.494V321.04H198.822V281.494H238.339ZM197.809 281.494V321.04H158.288V281.494H197.809ZM157.274 281.494V321.04H117.753V281.494H157.274ZM116.74 281.494V321.04H77.2191V281.494H116.74ZM116.74 280.48H77.2191V240.934H116.74V280.48ZM116.74 239.92H77.2191V200.374H116.74V239.92ZM116.74 199.36H77.2191V159.818H116.74V199.36ZM117.753 199.36V159.818H157.274V199.36H117.753ZM158.288 199.36V159.818H197.809V199.36H158.288ZM198.822 199.36V159.818H238.339V199.36H198.822ZM239.352 199.36V159.818H278.873V199.36H239.352ZM279.887 199.36V159.818H319.411V199.36H279.887ZM320.425 199.36V159.818H359.945V199.36H320.425ZM360.959 199.36V159.818H400.48V199.36H360.959ZM401.493 199.36V159.818H441.014V199.36H401.493ZM442.027 199.36V159.818H481.548V199.36H442.027ZM482.562 199.36V159.818H522.079V199.36H482.562ZM482.562 200.374H522.079V239.92H482.562V200.374ZM482.562 240.934H522.079V280.48H482.562V240.934ZM481.548 240.934V280.48H442.027V240.934H481.548ZM441.014 240.934V280.48H401.493V240.934H441.014ZM400.48 240.934V280.48H360.959V240.934H400.48ZM359.945 240.934V280.48H320.425V240.934H359.945ZM319.411 240.934V280.48H279.887V240.934H319.411ZM278.873 240.934V280.48H239.352V240.934H278.873ZM238.339 240.934V280.48H198.822V240.934H238.339ZM197.809 240.934V280.48H158.288V240.934H197.809ZM157.274 240.934V280.48H117.753V240.934H157.274ZM157.274 239.92H117.753V200.374H157.274V239.92ZM158.288 239.92V200.374H197.809V239.92H158.288ZM198.822 239.92V200.374H238.339V239.92H198.822ZM239.352 239.92V200.374H278.873V239.92H239.352ZM279.887 239.92V200.374H319.411V239.92H279.887ZM320.425 239.92V200.374H359.945V239.92H320.425ZM360.959 239.92V200.374H400.48V239.92H360.959ZM401.493 239.92V200.374H441.014V239.92H401.493ZM442.027 239.92V200.374H481.548V239.92H442.027ZM-85.9313 403.178H-125.452V442.724H-85.9313V403.178Z"
              fill="url(#paint0_radial_14_121)"
            />
            <path
              fill-rule="evenodd"
              clip-rule="evenodd"
              d="M767.315 483.28V443.738H806.832V483.28H807.845V443.738H847.366V483.28H848.38V443.738H887.904V483.28H888.918V443.738H928.439V483.28H929.452V443.738H968.973V483.28H969.986V443.738H1009.51V483.28H1010.52V443.738H1050.04V483.28H1051.05V443.738H1090.57V483.28H1091.59V443.738H1131.11V483.28H1132.12V443.738H1171.64V483.28H1172.66V443.738H1212.18V483.28H1213.19V443.738H1252.71V483.28H1253.73V443.738H1293.25V483.28H1294.26V443.738H1333.78V483.28H1334.79V443.738H1374.31V483.28H1375.32V443.738H1414.85V483.28H1415.86V443.738H1455.38V483.28H1456.4V443.738H1495.92V483.28H1496.93V443.738H1536.45V483.28H1537.47V443.738H1578V442.724H1537.47V403.178H1578V402.164H1537.47V362.614H1578V361.6H1537.47V322.054H1578V321.04H1537.47V281.494H1578V280.48H1537.47V240.934H1578V239.92H1537.47V200.374H1578V199.36H1537.47V159.818H1578V158.804H1537.47V119.258H1578V118.244H1537.47V78.694H1578V77.68H1537.47V38.134H1578V37.12H1537.47V-2.426H1578V-3.44H1537.47V-43.9995H1536.45V-3.44H1496.93V-44H1495.92V-3.44H1456.4V-43.9995H1455.38V-3.44H1415.86V-44H1414.85V-3.44H1375.32V-43.9995H1374.31V-3.44H1334.79V-44H1333.78V-3.44H1294.26V-43.9995H1293.25V-3.44H1253.73V-43.9995H1252.71V-3.44H1213.19V-44H1212.18V-3.44H1172.66V-43.9995H1171.64V-3.44H1132.12V-44H1131.11V-3.44H1091.59V-43.9995H1090.57V-3.44H1051.05V-44H1050.04V-3.44H1010.52V-43.9995H1009.51V-3.44H969.986V-43.9995H968.973V-3.44H929.452V-44H928.439V-3.44H888.918V-43.9995H887.904V-3.44H848.38V-44H847.366V-3.44H807.845V-43.9995H806.832V-3.44H767.315V-44H766.301V-3.44H726.781V-43.9995H725.767L725.767 -3.44H685.233V-2.426H725.767L725.767 37.12H685.233V38.134H725.767L725.767 77.68H685.233V78.694H725.767L725.767 118.244H685.233V119.258H725.767L725.767 158.804H685.233V159.818H725.767L725.767 199.36H685.233V200.374H725.767L725.767 239.92H685.233V240.934H725.767V280.48H685.233V281.494H725.767L725.767 321.04H685.233V322.054H725.767L725.767 361.6H685.233V362.614H725.767L725.767 402.164H685.233V403.178H725.767L725.767 442.724H685.233V443.738H725.767L725.767 483.28H726.781V443.738H766.301V483.28H767.315ZM806.832 442.724H767.315V403.178H806.832V442.724ZM806.832 402.164H767.315V362.614H806.832V402.164ZM766.301 402.164V362.614H726.781V402.164H766.301ZM806.832 361.6H767.315V322.054H806.832V361.6ZM766.301 361.6V322.054H726.781V361.6H766.301ZM806.832 321.04H767.315V281.494H806.832V321.04ZM766.301 321.04V281.494H726.781V321.04H766.301ZM806.832 280.48H767.315V240.934H806.832V280.48ZM766.301 280.48V240.934H726.781V280.48H766.301ZM806.832 239.92H767.315V200.374H806.832V239.92ZM766.301 239.92V200.374H726.781V239.92H766.301ZM806.832 199.36H767.315V159.818H806.832V199.36ZM766.301 199.36V159.818H726.781V199.36H766.301ZM806.832 158.804H767.315V119.258H806.832V158.804ZM766.301 158.804V119.258H726.781V158.804H766.301ZM806.832 118.244H767.315V78.694H806.832V118.244ZM766.301 118.244V78.694H726.781V118.244H766.301ZM806.832 77.68H767.315V38.134H806.832V77.68ZM766.301 77.68V38.134H726.781V77.68H766.301ZM806.832 37.12H767.315V-2.426H806.832V37.12ZM766.301 37.12V-2.426H726.781V37.12H766.301ZM807.845 37.12V-2.426H847.366V37.12H807.845ZM848.38 37.12V-2.426H887.904V37.12H848.38ZM888.918 37.12V-2.426H928.439V37.12H888.918ZM929.452 37.12V-2.426H968.973V37.12H929.452ZM969.986 37.12V-2.426H1009.51V37.12H969.986ZM1010.52 37.12V-2.426H1050.04V37.12H1010.52ZM1051.05 37.12V-2.426H1090.57V37.12H1051.05ZM1091.59 37.12V-2.426H1131.11V37.12H1091.59ZM1132.12 37.12V-2.426H1171.64V37.12H1132.12ZM1172.66 37.12V-2.426H1212.18V37.12H1172.66ZM1213.19 37.12V-2.426H1252.71V37.12H1213.19ZM1253.73 37.12V-2.426H1293.25V37.12H1253.73ZM1294.26 37.12V-2.426H1333.78V37.12H1294.26ZM1334.79 37.12V-2.426H1374.31V37.12H1334.79ZM1375.32 37.12V-2.426H1414.85V37.12H1375.32ZM1415.86 37.12V-2.426H1455.38V37.12H1415.86ZM1456.4 37.12V-2.426H1495.92V37.12H1456.4ZM1496.93 37.12V-2.426H1536.45V37.12H1496.93ZM1496.93 38.134H1536.45V77.68H1496.93V38.134ZM1496.93 78.694H1536.45V118.244H1496.93V78.694ZM1496.93 119.258H1536.45V158.804H1496.93V119.258ZM1496.93 159.818H1536.45V199.36H1496.93V159.818ZM1496.93 200.374H1536.45V239.92H1496.93V200.374ZM1496.93 240.934H1536.45V280.48H1496.93V240.934ZM1496.93 281.494H1536.45V321.04H1496.93V281.494ZM1496.93 322.054H1536.45V361.6H1496.93V322.054ZM1496.93 362.614H1536.45V402.164H1496.93V362.614ZM1496.93 403.178H1536.45V442.724H1496.93V403.178ZM1495.92 403.178V442.724H1456.4V403.178H1495.92ZM1455.38 403.178V442.724H1415.86V403.178H1455.38ZM1414.85 403.178V442.724H1375.32V403.178H1414.85ZM1374.31 403.178V442.724H1334.79V403.178H1374.31ZM1333.78 403.178V442.724H1294.26V403.178H1333.78ZM1293.25 403.178V442.724H1253.73V403.178H1293.25ZM1252.71 403.178V442.724H1213.19V403.178H1252.71ZM1212.18 403.178V442.724H1172.66V403.178H1212.18ZM1171.64 403.178V442.724H1132.12V403.178H1171.64ZM1131.11 403.178V442.724H1091.59V403.178H1131.11ZM1090.57 403.178V442.724H1051.05V403.178H1090.57ZM1050.04 403.178V442.724H1010.52V403.178H1050.04ZM1009.51 403.178V442.724H969.986V403.178H1009.51ZM968.973 403.178V442.724H929.452V403.178H968.973ZM928.439 403.178V442.724H888.918V403.178H928.439ZM887.904 403.178V442.724H848.38V403.178H887.904ZM847.366 403.178V442.724H807.845V403.178H847.366ZM847.366 402.164H807.845V362.614H847.366V402.164ZM847.366 361.6H807.845V322.054H847.366V361.6ZM847.366 321.04H807.845V281.494H847.366V321.04ZM847.366 280.48H807.845V240.934H847.366V280.48ZM847.366 239.92H807.845V200.374H847.366V239.92ZM847.366 199.36H807.845V159.818H847.366V199.36ZM847.366 158.804H807.845V119.258H847.366V158.804ZM847.366 118.244H807.845V78.694H847.366V118.244ZM847.366 77.68H807.845V38.134H847.366V77.68ZM848.38 77.68V38.134H887.904V77.68H848.38ZM888.918 77.68V38.134H928.439V77.68H888.918ZM929.452 77.68V38.134H968.973V77.68H929.452ZM969.986 77.68V38.134H1009.51V77.68H969.986ZM1010.52 77.68V38.134H1050.04V77.68H1010.52ZM1051.05 77.68V38.134H1090.57V77.68H1051.05ZM1091.59 77.68V38.134H1131.11V77.68H1091.59ZM1132.12 77.68V38.134H1171.64V77.68H1132.12ZM1172.66 77.68V38.134H1212.18V77.68H1172.66ZM1213.19 77.68V38.134H1252.71V77.68H1213.19ZM1253.73 77.68V38.134H1293.25V77.68H1253.73ZM1294.26 77.68V38.134H1333.78V77.68H1294.26ZM1334.79 77.68V38.134H1374.31V77.68H1334.79ZM1375.32 77.68V38.134H1414.85V77.68H1375.32ZM1415.86 77.68V38.134H1455.38V77.68H1415.86ZM1456.4 77.68V38.134H1495.92V77.68H1456.4ZM1456.4 78.694H1495.92V118.244H1456.4V78.694ZM1456.4 119.258H1495.92V158.804H1456.4V119.258ZM1456.4 159.818H1495.92V199.36H1456.4V159.818ZM1456.4 200.374H1495.92V239.92H1456.4V200.374ZM1456.4 240.934H1495.92V280.48H1456.4V240.934ZM1456.4 281.494H1495.92V321.04H1456.4V281.494ZM1456.4 322.054H1495.92V361.6H1456.4V322.054ZM1456.4 362.614H1495.92V402.164H1456.4V362.614ZM1455.38 362.614V402.164H1415.86V362.614H1455.38ZM1414.85 362.614V402.164H1375.32V362.614H1414.85ZM1374.31 362.614V402.164H1334.79V362.614H1374.31ZM1333.78 362.614V402.164H1294.26V362.614H1333.78ZM1293.25 362.614V402.164H1253.73V362.614H1293.25ZM1252.71 362.614V402.164H1213.19V362.614H1252.71ZM1212.18 362.614V402.164H1172.66V362.614H1212.18ZM1171.64 362.614V402.164H1132.12V362.614H1171.64ZM1131.11 362.614V402.164H1091.59V362.614H1131.11ZM1090.57 362.614V402.164H1051.05V362.614H1090.57ZM1050.04 362.614V402.164H1010.52V362.614H1050.04ZM1009.51 362.614V402.164H969.986V362.614H1009.51ZM968.973 362.614V402.164H929.452V362.614H968.973ZM928.439 362.614V402.164H888.918V362.614H928.439ZM887.904 362.614V402.164H848.38V362.614H887.904ZM887.904 361.6H848.38V322.054H887.904V361.6ZM887.904 321.04H848.38V281.494H887.904V321.04ZM887.904 280.48H848.38V240.934H887.904V280.48ZM887.904 239.92H848.38V200.374H887.904V239.92ZM887.904 199.36H848.38V159.818H887.904V199.36ZM887.904 158.804H848.38V119.258H887.904V158.804ZM887.904 118.244H848.38V78.694H887.904V118.244ZM888.918 118.244V78.694H928.439V118.244H888.918ZM929.452 118.244V78.694H968.973V118.244H929.452ZM969.986 118.244V78.694H1009.51V118.244H969.986ZM1010.52 118.244V78.694H1050.04V118.244H1010.52ZM1051.05 118.244V78.694H1090.57V118.244H1051.05ZM1091.59 118.244V78.694H1131.11V118.244H1091.59ZM1132.12 118.244V78.694H1171.64V118.244H1132.12ZM1172.66 118.244V78.694H1212.18V118.244H1172.66ZM1213.19 118.244V78.694H1252.71V118.244H1213.19ZM1253.73 118.244V78.694H1293.25V118.244H1253.73ZM1294.26 118.244V78.694H1333.78V118.244H1294.26ZM1334.79 118.244V78.694H1374.31V118.244H1334.79ZM1375.32 118.244V78.694H1414.85V118.244H1375.32ZM1415.86 118.244V78.694H1455.38V118.244H1415.86ZM1415.86 119.258H1455.38V158.804H1415.86V119.258ZM1415.86 159.818H1455.38V199.36H1415.86V159.818ZM1415.86 200.374H1455.38V239.92H1415.86V200.374ZM1415.86 240.934H1455.38V280.48H1415.86V240.934ZM1415.86 281.494H1455.38V321.04H1415.86V281.494ZM1415.86 322.054H1455.38V361.6H1415.86V322.054ZM1414.85 322.054V361.6H1375.32V322.054H1414.85ZM1374.31 322.054V361.6H1334.79V322.054H1374.31ZM1333.78 322.054V361.6H1294.26V322.054H1333.78ZM1293.25 322.054V361.6H1253.73V322.054H1293.25ZM1252.71 322.054V361.6H1213.19V322.054H1252.71ZM1212.18 322.054V361.6H1172.66V322.054H1212.18ZM1171.64 322.054V361.6H1132.12V322.054H1171.64ZM1131.11 322.054V361.6H1091.59V322.054H1131.11ZM1090.57 322.054V361.6H1051.05V322.054H1090.57ZM1050.04 322.054V361.6H1010.52V322.054H1050.04ZM1009.51 322.054V361.6H969.986V322.054H1009.51ZM968.973 322.054V361.6H929.452V322.054H968.973ZM928.439 322.054V361.6H888.918V322.054H928.439ZM928.439 321.04H888.918V281.494H928.439V321.04ZM928.439 280.48H888.918V240.934H928.439V280.48ZM928.439 239.92H888.918V200.374H928.439V239.92ZM928.439 199.36H888.918V159.818H928.439V199.36ZM928.439 158.804H888.918V119.258H928.439V158.804ZM929.452 158.804V119.258H968.973V158.804H929.452ZM969.986 158.804V119.258H1009.51V158.804H969.986ZM1010.52 158.804V119.258H1050.04V158.804H1010.52ZM1051.05 158.804V119.258H1090.57V158.804H1051.05ZM1091.59 158.804V119.258H1131.11V158.804H1091.59ZM1132.12 158.804V119.258H1171.64V158.804H1132.12ZM1172.66 158.804V119.258H1212.18V158.804H1172.66ZM1213.19 158.804V119.258H1252.71V158.804H1213.19ZM1253.73 158.804V119.258H1293.25V158.804H1253.73ZM1294.26 158.804V119.258H1333.78V158.804H1294.26ZM1334.79 158.804V119.258H1374.31V158.804H1334.79ZM1375.32 158.804V119.258H1414.85V158.804H1375.32ZM1375.32 159.818H1414.85V199.36H1375.32V159.818ZM1375.32 200.374H1414.85V239.92H1375.32V200.374ZM1375.32 240.934H1414.85V280.48H1375.32V240.934ZM1375.32 281.494H1414.85V321.04H1375.32V281.494ZM1374.31 281.494V321.04H1334.79V281.494H1374.31ZM1333.78 281.494V321.04H1294.26V281.494H1333.78ZM1293.25 281.494V321.04H1253.73V281.494H1293.25ZM1252.71 281.494V321.04H1213.19V281.494H1252.71ZM1212.18 281.494V321.04H1172.66V281.494H1212.18ZM1171.64 281.494V321.04H1132.12V281.494H1171.64ZM1131.11 281.494V321.04H1091.59V281.494H1131.11ZM1090.57 281.494V321.04H1051.05V281.494H1090.57ZM1050.04 281.494V321.04H1010.52V281.494H1050.04ZM1009.51 281.494V321.04H969.986V281.494H1009.51ZM968.973 281.494V321.04H929.452V281.494H968.973ZM968.973 280.48H929.452V240.934H968.973V280.48ZM968.973 239.92H929.452V200.374H968.973V239.92ZM968.973 199.36H929.452V159.818H968.973V199.36ZM969.986 199.36V159.818H1009.51V199.36H969.986ZM1010.52 199.36V159.818H1050.04V199.36H1010.52ZM1051.05 199.36V159.818H1090.57V199.36H1051.05ZM1091.59 199.36V159.818H1131.11V199.36H1091.59ZM1132.12 199.36V159.818H1171.64V199.36H1132.12ZM1172.66 199.36V159.818H1212.18V199.36H1172.66ZM1213.19 199.36V159.818H1252.71V199.36H1213.19ZM1253.73 199.36V159.818H1293.25V199.36H1253.73ZM1294.26 199.36V159.818H1333.78V199.36H1294.26ZM1334.79 199.36V159.818H1374.31V199.36H1334.79ZM1334.79 200.374H1374.31V239.92H1334.79V200.374ZM1334.79 240.934H1374.31V280.48H1334.79V240.934ZM1333.78 240.934V280.48H1294.26V240.934H1333.78ZM1293.25 240.934V280.48H1253.73V240.934H1293.25ZM1252.71 240.934V280.48H1213.19V240.934H1252.71ZM1212.18 240.934V280.48H1172.66V240.934H1212.18ZM1171.64 240.934V280.48H1132.12V240.934H1171.64ZM1131.11 240.934V280.48H1091.59V240.934H1131.11ZM1090.57 240.934V280.48H1051.05V240.934H1090.57ZM1050.04 240.934V280.48H1010.52V240.934H1050.04ZM1009.51 240.934V280.48H969.986V240.934H1009.51ZM1009.51 239.92H969.986V200.374H1009.51V239.92ZM1010.52 239.92V200.374H1050.04V239.92H1010.52ZM1051.05 239.92V200.374H1090.57V239.92H1051.05ZM1091.59 239.92V200.374H1131.11V239.92H1091.59ZM1132.12 239.92V200.374H1171.64V239.92H1132.12ZM1172.66 239.92V200.374H1212.18V239.92H1172.66ZM1213.19 239.92V200.374H1252.71V239.92H1213.19ZM1253.73 239.92V200.374H1293.25V239.92H1253.73ZM1294.26 239.92V200.374H1333.78V239.92H1294.26ZM766.301 403.178H726.781V442.724H766.301V403.178Z"
              fill="url(#paint1_radial_14_121)"
            />
            <path
              fill-rule="evenodd"
              clip-rule="evenodd"
              d="M-84.9179 970V930.458H-45.4007V970H-44.3874V930.458H-4.8665V970H-3.85313V930.458H35.6715V970H36.6848V930.458H76.2057V970H77.2191V930.458H116.74V970H117.753V930.458H157.274V970H158.288V930.458H197.809V970H198.822V930.458H238.339V970H239.352V930.458H278.873V970H279.887V930.458H319.411V970H320.425V930.458H359.945V970H360.959V930.458H400.48V970H401.493V930.458H441.014V970H442.027V930.458H481.548V970H482.562V930.458H522.079V970H523.092V930.458H562.613V970H563.626V930.458H603.151V970H604.164V930.458H643.685V970H644.699V930.458H684.22V970H685.233V930.458H725.767V929.444H685.233V889.898H725.767V888.884H685.233V849.334H725.767V848.32H685.233V808.774H725.767V807.76H685.233V768.214H725.767V767.2H685.233V727.654H725.767V726.64H685.233V687.094H725.767V686.08H685.233V646.538H725.767V645.524H685.233V605.978H725.767V604.964H685.233V565.414H725.767V564.4H685.233V524.854H725.767V523.84H685.233V484.294H725.767L725.767 483.28H685.233V442.721H684.22V483.28H644.699V442.72H643.685V483.28H604.164V442.721H603.151V483.28H563.626V442.72H562.613V483.28H523.092V442.721H522.079V483.28H482.562V442.72H481.548V483.28H442.027V442.721H441.014V483.28H401.493V442.721H400.48V483.28H360.959V442.72H359.945V483.28H320.425V442.721H319.411V483.28H279.887V442.72H278.873V483.28H239.352V442.721H238.339V483.28H198.822V442.72H197.809V483.28H158.288V442.721H157.274V483.28H117.753V442.721H116.74V483.28H77.2191V442.72H76.2057V483.28H36.6848V442.721H35.6715V483.28H-3.85313V442.72H-4.8665V483.28H-44.3874V442.721H-45.4007V483.28H-84.9179V442.72H-85.9313V483.28H-125.452V442.721H-126.466V483.28H-167V484.294H-126.466V523.84H-167V524.854H-126.466V564.4H-167V565.414H-126.466V604.964H-167V605.978H-126.466V645.524H-167V646.538H-126.466V686.08H-167V687.094H-126.466V726.64H-167V727.654H-126.466V767.2H-167V768.214H-126.466V807.76H-167V808.774H-126.466V848.32H-167V849.334H-126.466V888.884H-167V889.898H-126.466V929.444H-167V930.458H-126.466V970H-125.452V930.458H-85.9313V970H-84.9179ZM-45.4007 929.444H-84.9179V889.898H-45.4007V929.444ZM-45.4007 888.884H-84.9179V849.334H-45.4007V888.884ZM-85.9313 888.884V849.334H-125.452V888.884H-85.9313ZM-45.4007 848.32H-84.9179V808.774H-45.4007V848.32ZM-85.9313 848.32V808.774H-125.452V848.32H-85.9313ZM-45.4007 807.76H-84.9179V768.214H-45.4007V807.76ZM-85.9313 807.76V768.214H-125.452V807.76H-85.9313ZM-45.4007 767.2H-84.9179V727.654H-45.4007V767.2ZM-85.9313 767.2V727.654H-125.452V767.2H-85.9313ZM-45.4007 726.64H-84.9179V687.094H-45.4007V726.64ZM-85.9313 726.64V687.094H-125.452V726.64H-85.9313ZM-45.4007 686.08H-84.9179V646.538H-45.4007V686.08ZM-85.9313 686.08V646.538H-125.452V686.08H-85.9313ZM-45.4007 645.524H-84.9179V605.978H-45.4007V645.524ZM-85.9313 645.524V605.978H-125.452V645.524H-85.9313ZM-45.4007 604.964H-84.9179V565.414H-45.4007V604.964ZM-85.9313 604.964V565.414H-125.452V604.964H-85.9313ZM-45.4007 564.4H-84.9179V524.854H-45.4007V564.4ZM-85.9313 564.4V524.854H-125.452V564.4H-85.9313ZM-45.4007 523.84H-84.9179V484.294H-45.4007V523.84ZM-85.9313 523.84V484.294H-125.452V523.84H-85.9313ZM-44.3874 523.84V484.294H-4.8665V523.84H-44.3874ZM-3.85313 523.84V484.294H35.6715V523.84H-3.85313ZM36.6848 523.84V484.294H76.2057V523.84H36.6848ZM77.2191 523.84V484.294H116.74V523.84H77.2191ZM117.753 523.84V484.294H157.274V523.84H117.753ZM158.288 523.84V484.294H197.809V523.84H158.288ZM198.822 523.84V484.294H238.339V523.84H198.822ZM239.352 523.84V484.294H278.873V523.84H239.352ZM279.887 523.84V484.294H319.411V523.84H279.887ZM320.425 523.84V484.294H359.945V523.84H320.425ZM360.959 523.84V484.294H400.48V523.84H360.959ZM401.493 523.84V484.294H441.014V523.84H401.493ZM442.027 523.84V484.294H481.548V523.84H442.027ZM482.562 523.84V484.294H522.079V523.84H482.562ZM523.092 523.84V484.294H562.613V523.84H523.092ZM563.626 523.84V484.294H603.151V523.84H563.626ZM604.164 523.84V484.294H643.685V523.84H604.164ZM644.699 523.84V484.294H684.22V523.84H644.699ZM644.699 524.854H684.22V564.4H644.699V524.854ZM644.699 565.414H684.22V604.964H644.699V565.414ZM644.699 605.978H684.22V645.524H644.699V605.978ZM644.699 646.538H684.22V686.08H644.699V646.538ZM644.699 687.094H684.22V726.64H644.699V687.094ZM644.699 727.654H684.22V767.2H644.699V727.654ZM644.699 768.214H684.22V807.76H644.699V768.214ZM644.699 808.774H684.22V848.32H644.699V808.774ZM644.699 849.334H684.22V888.884H644.699V849.334ZM644.699 889.898H684.22V929.444H644.699V889.898ZM643.685 889.898V929.444H604.164V889.898H643.685ZM603.151 889.898V929.444H563.626V889.898H603.151ZM562.613 889.898V929.444H523.092V889.898H562.613ZM522.079 889.898V929.444H482.562V889.898H522.079ZM481.548 889.898V929.444H442.027V889.898H481.548ZM441.014 889.898V929.444H401.493V889.898H441.014ZM400.48 889.898V929.444H360.959V889.898H400.48ZM359.945 889.898V929.444H320.425V889.898H359.945ZM319.411 889.898V929.444H279.887V889.898H319.411ZM278.873 889.898V929.444H239.352V889.898H278.873ZM238.339 889.898V929.444H198.822V889.898H238.339ZM197.809 889.898V929.444H158.288V889.898H197.809ZM157.274 889.898V929.444H117.753V889.898H157.274ZM116.74 889.898V929.444H77.2191V889.898H116.74ZM76.2057 889.898V929.444H36.6848V889.898H76.2057ZM35.6715 889.898V929.444H-3.85313V889.898H35.6715ZM-4.8665 889.898V929.444H-44.3874V889.898H-4.8665ZM-4.8665 888.884H-44.3874V849.334H-4.8665V888.884ZM-4.8665 848.32H-44.3874V808.774H-4.8665V848.32ZM-4.8665 807.76H-44.3874V768.214H-4.8665V807.76ZM-4.8665 767.2H-44.3874V727.654H-4.8665V767.2ZM-4.8665 726.64H-44.3874V687.094H-4.8665V726.64ZM-4.8665 686.08H-44.3874V646.538H-4.8665V686.08ZM-4.8665 645.524H-44.3874V605.978H-4.8665V645.524ZM-4.8665 604.964H-44.3874V565.414H-4.8665V604.964ZM-4.8665 564.4H-44.3874V524.854H-4.8665V564.4ZM-3.85313 564.4V524.854H35.6715V564.4H-3.85313ZM36.6848 564.4V524.854H76.2057V564.4H36.6848ZM77.2191 564.4V524.854H116.74V564.4H77.2191ZM117.753 564.4V524.854H157.274V564.4H117.753ZM158.288 564.4V524.854H197.809V564.4H158.288ZM198.822 564.4V524.854H238.339V564.4H198.822ZM239.352 564.4V524.854H278.873V564.4H239.352ZM279.887 564.4V524.854H319.411V564.4H279.887ZM320.425 564.4V524.854H359.945V564.4H320.425ZM360.959 564.4V524.854H400.48V564.4H360.959ZM401.493 564.4V524.854H441.014V564.4H401.493ZM442.027 564.4V524.854H481.548V564.4H442.027ZM482.562 564.4V524.854H522.079V564.4H482.562ZM523.092 564.4V524.854H562.613V564.4H523.092ZM563.626 564.4V524.854H603.151V564.4H563.626ZM604.164 564.4V524.854H643.685V564.4H604.164ZM604.164 565.414H643.685V604.964H604.164V565.414ZM604.164 605.978H643.685V645.524H604.164V605.978ZM604.164 646.538H643.685V686.08H604.164V646.538ZM604.164 687.094H643.685V726.64H604.164V687.094ZM604.164 727.654H643.685V767.2H604.164V727.654ZM604.164 768.214H643.685V807.76H604.164V768.214ZM604.164 808.774H643.685V848.32H604.164V808.774ZM604.164 849.334H643.685V888.884H604.164V849.334ZM603.151 849.334V888.884H563.626V849.334H603.151ZM562.613 849.334V888.884H523.092V849.334H562.613ZM522.079 849.334V888.884H482.562V849.334H522.079ZM481.548 849.334V888.884H442.027V849.334H481.548ZM441.014 849.334V888.884H401.493V849.334H441.014ZM400.48 849.334V888.884H360.959V849.334H400.48ZM359.945 849.334V888.884H320.425V849.334H359.945ZM319.411 849.334V888.884H279.887V849.334H319.411ZM278.873 849.334V888.884H239.352V849.334H278.873ZM238.339 849.334V888.884H198.822V849.334H238.339ZM197.809 849.334V888.884H158.288V849.334H197.809ZM157.274 849.334V888.884H117.753V849.334H157.274ZM116.74 849.334V888.884H77.2191V849.334H116.74ZM76.2057 849.334V888.884H36.6848V849.334H76.2057ZM35.6715 849.334V888.884H-3.85313V849.334H35.6715ZM35.6715 848.32H-3.85313V808.774H35.6715V848.32ZM35.6715 807.76H-3.85313V768.214H35.6715V807.76ZM35.6715 767.2H-3.85313V727.654H35.6715V767.2ZM35.6715 726.64H-3.85313V687.094H35.6715V726.64ZM35.6715 686.08H-3.85313V646.538H35.6715V686.08ZM35.6715 645.524H-3.85313V605.978H35.6715V645.524ZM35.6715 604.964H-3.85313V565.414H35.6715V604.964ZM36.6848 604.964V565.414H76.2057V604.964H36.6848ZM77.2191 604.964V565.414H116.74V604.964H77.2191ZM117.753 604.964V565.414H157.274V604.964H117.753ZM158.288 604.964V565.414H197.809V604.964H158.288ZM198.822 604.964V565.414H238.339V604.964H198.822ZM239.352 604.964V565.414H278.873V604.964H239.352ZM279.887 604.964V565.414H319.411V604.964H279.887ZM320.425 604.964V565.414H359.945V604.964H320.425ZM360.959 604.964V565.414H400.48V604.964H360.959ZM401.493 604.964V565.414H441.014V604.964H401.493ZM442.027 604.964V565.414H481.548V604.964H442.027ZM482.562 604.964V565.414H522.079V604.964H482.562ZM523.092 604.964V565.414H562.613V604.964H523.092ZM563.626 604.964V565.414H603.151V604.964H563.626ZM563.626 605.978H603.151V645.524H563.626V605.978ZM563.626 646.538H603.151V686.08H563.626V646.538ZM563.626 687.094H603.151V726.64H563.626V687.094ZM563.626 727.654H603.151V767.2H563.626V727.654ZM563.626 768.214H603.151V807.76H563.626V768.214ZM563.626 808.774H603.151V848.32H563.626V808.774ZM562.613 808.774V848.32H523.092V808.774H562.613ZM522.079 808.774V848.32H482.562V808.774H522.079ZM481.548 808.774V848.32H442.027V808.774H481.548ZM441.014 808.774V848.32H401.493V808.774H441.014ZM400.48 808.774V848.32H360.959V808.774H400.48ZM359.945 808.774V848.32H320.425V808.774H359.945ZM319.411 808.774V848.32H279.887V808.774H319.411ZM278.873 808.774V848.32H239.352V808.774H278.873ZM238.339 808.774V848.32H198.822V808.774H238.339ZM197.809 808.774V848.32H158.288V808.774H197.809ZM157.274 808.774V848.32H117.753V808.774H157.274ZM116.74 808.774V848.32H77.2191V808.774H116.74ZM76.2057 808.774V848.32H36.6848V808.774H76.2057ZM76.2057 807.76H36.6848V768.214H76.2057V807.76ZM76.2057 767.2H36.6848V727.654H76.2057V767.2ZM76.2057 726.64H36.6848V687.094H76.2057V726.64ZM76.2057 686.08H36.6848V646.538H76.2057V686.08ZM76.2057 645.524H36.6848V605.978H76.2057V645.524ZM77.2191 645.524V605.978H116.74V645.524H77.2191ZM117.753 645.524V605.978H157.274V645.524H117.753ZM158.288 645.524V605.978H197.809V645.524H158.288ZM198.822 645.524V605.978H238.339V645.524H198.822ZM239.352 645.524V605.978H278.873V645.524H239.352ZM279.887 645.524V605.978H319.411V645.524H279.887ZM320.425 645.524V605.978H359.945V645.524H320.425ZM360.959 645.524V605.978H400.48V645.524H360.959ZM401.493 645.524V605.978H441.014V645.524H401.493ZM442.027 645.524V605.978H481.548V645.524H442.027ZM482.562 645.524V605.978H522.079V645.524H482.562ZM523.092 645.524V605.978H562.613V645.524H523.092ZM523.092 646.538H562.613V686.08H523.092V646.538ZM523.092 687.094H562.613V726.64H523.092V687.094ZM523.092 727.654H562.613V767.2H523.092V727.654ZM523.092 768.214H562.613V807.76H523.092V768.214ZM522.079 768.214V807.76H482.562V768.214H522.079ZM481.548 768.214V807.76H442.027V768.214H481.548ZM441.014 768.214V807.76H401.493V768.214H441.014ZM400.48 768.214V807.76H360.959V768.214H400.48ZM359.945 768.214V807.76H320.425V768.214H359.945ZM319.411 768.214V807.76H279.887V768.214H319.411ZM278.873 768.214V807.76H239.352V768.214H278.873ZM238.339 768.214V807.76H198.822V768.214H238.339ZM197.809 768.214V807.76H158.288V768.214H197.809ZM157.274 768.214V807.76H117.753V768.214H157.274ZM116.74 768.214V807.76H77.2191V768.214H116.74ZM116.74 767.2H77.2191V727.654H116.74V767.2ZM116.74 726.64H77.2191V687.094H116.74V726.64ZM116.74 686.08H77.2191V646.538H116.74V686.08ZM117.753 686.08V646.538H157.274V686.08H117.753ZM158.288 686.08V646.538H197.809V686.08H158.288ZM198.822 686.08V646.538H238.339V686.08H198.822ZM239.352 686.08V646.538H278.873V686.08H239.352ZM279.887 686.08V646.538H319.411V686.08H279.887ZM320.425 686.08V646.538H359.945V686.08H320.425ZM360.959 686.08V646.538H400.48V686.08H360.959ZM401.493 686.08V646.538H441.014V686.08H401.493ZM442.027 686.08V646.538H481.548V686.08H442.027ZM482.562 686.08V646.538H522.079V686.08H482.562ZM482.562 687.094H522.079V726.64H482.562V687.094ZM482.562 727.654H522.079V767.2H482.562V727.654ZM481.548 727.654V767.2H442.027V727.654H481.548ZM441.014 727.654V767.2H401.493V727.654H441.014ZM400.48 727.654V767.2H360.959V727.654H400.48ZM359.945 727.654V767.2H320.425V727.654H359.945ZM319.411 727.654V767.2H279.887V727.654H319.411ZM278.873 727.654V767.2H239.352V727.654H278.873ZM238.339 727.654V767.2H198.822V727.654H238.339ZM197.809 727.654V767.2H158.288V727.654H197.809ZM157.274 727.654V767.2H117.753V727.654H157.274ZM157.274 726.64H117.753V687.094H157.274V726.64ZM158.288 726.64V687.094H197.809V726.64H158.288ZM198.822 726.64V687.094H238.339V726.64H198.822ZM239.352 726.64V687.094H278.873V726.64H239.352ZM279.887 726.64V687.094H319.411V726.64H279.887ZM320.425 726.64V687.094H359.945V726.64H320.425ZM360.959 726.64V687.094H400.48V726.64H360.959ZM401.493 726.64V687.094H441.014V726.64H401.493ZM442.027 726.64V687.094H481.548V726.64H442.027ZM-85.9313 889.898H-125.452V929.444H-85.9313V889.898Z"
              fill="url(#paint2_radial_14_121)"
            />
            <path
              fill-rule="evenodd"
              clip-rule="evenodd"
              d="M767.315 970V930.458H806.832V970H807.845V930.458H847.366V970H848.38V930.458H887.904V970H888.918V930.458H928.439V970H929.452V930.458H968.973V970H969.986V930.458H1009.51V970H1010.52V930.458H1050.04V970H1051.05V930.458H1090.57V970H1091.59V930.458H1131.11V970H1132.12V930.458H1171.64V970H1172.66V930.458H1212.18V970H1213.19V930.458H1252.71V970H1253.73V930.458H1293.25V970H1294.26V930.458H1333.78V970H1334.79V930.458H1374.31V970H1375.32V930.458H1414.85V970H1415.86V930.458H1455.38V970H1456.4V930.458H1495.92V970H1496.93V930.458H1536.45V970H1537.47V930.458H1578V929.444H1537.47V889.898H1578V888.884H1537.47V849.334H1578V848.32H1537.47V808.774H1578V807.76H1537.47V768.214H1578V767.2H1537.47V727.654H1578V726.64H1537.47V687.094H1578V686.08H1537.47V646.538H1578V645.524H1537.47V605.978H1578V604.964H1537.47V565.414H1578V564.4H1537.47V524.854H1578V523.84H1537.47V484.294H1578V483.28H1537.47V442.721H1536.45V483.28H1496.93V442.72H1495.92V483.28H1456.4V442.721H1455.38V483.28H1415.86V442.72H1414.85V483.28H1375.32V442.721H1374.31V483.28H1334.79V442.72H1333.78V483.28H1294.26V442.721H1293.25V483.28H1253.73V442.721H1252.71V483.28H1213.19V442.72H1212.18V483.28H1172.66V442.721H1171.64V483.28H1132.12V442.72H1131.11V483.28H1091.59V442.721H1090.57V483.28H1051.05V442.72H1050.04V483.28H1010.52V442.721H1009.51V483.28H969.986V442.721H968.973V483.28H929.452V442.72H928.439V483.28H888.918V442.721H887.904V483.28H848.38V442.72H847.366V483.28H807.845V442.721H806.832V483.28H767.315V442.72H766.301V483.28H726.781V442.721H725.767V483.28H685.233V484.294H725.767L725.767 523.84H685.233V524.854H725.767L725.767 564.4H685.233V565.414H725.767L725.767 604.964H685.233V605.978H725.767L725.767 645.524H685.233V646.538H725.767L725.767 686.08H685.233V687.094H725.767L725.767 726.64H685.233V727.654H725.767V767.2H685.233V768.214H725.767L725.767 807.76H685.233V808.774H725.767L725.767 848.32H685.233V849.334H725.767L725.767 888.884H685.233V889.898H725.767L725.767 929.444H685.233V930.458H725.767L725.767 970H726.781V930.458H766.301V970H767.315ZM806.832 929.444H767.315V889.898H806.832V929.444ZM806.832 888.884H767.315V849.334H806.832V888.884ZM766.301 888.884V849.334H726.781V888.884H766.301ZM806.832 848.32H767.315V808.774H806.832V848.32ZM766.301 848.32V808.774H726.781V848.32H766.301ZM806.832 807.76H767.315V768.214H806.832V807.76ZM766.301 807.76V768.214H726.781V807.76H766.301ZM806.832 767.2H767.315V727.654H806.832V767.2ZM766.301 767.2V727.654H726.781V767.2H766.301ZM806.832 726.64H767.315V687.094H806.832V726.64ZM766.301 726.64V687.094H726.781V726.64H766.301ZM806.832 686.08H767.315V646.538H806.832V686.08ZM766.301 686.08V646.538H726.781V686.08H766.301ZM806.832 645.524H767.315V605.978H806.832V645.524ZM766.301 645.524V605.978H726.781V645.524H766.301ZM806.832 604.964H767.315V565.414H806.832V604.964ZM766.301 604.964V565.414H726.781V604.964H766.301ZM806.832 564.4H767.315V524.854H806.832V564.4ZM766.301 564.4V524.854H726.781V564.4H766.301ZM806.832 523.84H767.315V484.294H806.832V523.84ZM766.301 523.84V484.294H726.781V523.84H766.301ZM807.845 523.84V484.294H847.366V523.84H807.845ZM848.38 523.84V484.294H887.904V523.84H848.38ZM888.918 523.84V484.294H928.439V523.84H888.918ZM929.452 523.84V484.294H968.973V523.84H929.452ZM969.986 523.84V484.294H1009.51V523.84H969.986ZM1010.52 523.84V484.294H1050.04V523.84H1010.52ZM1051.05 523.84V484.294H1090.57V523.84H1051.05ZM1091.59 523.84V484.294H1131.11V523.84H1091.59ZM1132.12 523.84V484.294H1171.64V523.84H1132.12ZM1172.66 523.84V484.294H1212.18V523.84H1172.66ZM1213.19 523.84V484.294H1252.71V523.84H1213.19ZM1253.73 523.84V484.294H1293.25V523.84H1253.73ZM1294.26 523.84V484.294H1333.78V523.84H1294.26ZM1334.79 523.84V484.294H1374.31V523.84H1334.79ZM1375.32 523.84V484.294H1414.85V523.84H1375.32ZM1415.86 523.84V484.294H1455.38V523.84H1415.86ZM1456.4 523.84V484.294H1495.92V523.84H1456.4ZM1496.93 523.84V484.294H1536.45V523.84H1496.93ZM1496.93 524.854H1536.45V564.4H1496.93V524.854ZM1496.93 565.414H1536.45V604.964H1496.93V565.414ZM1496.93 605.978H1536.45V645.524H1496.93V605.978ZM1496.93 646.538H1536.45V686.08H1496.93V646.538ZM1496.93 687.094H1536.45V726.64H1496.93V687.094ZM1496.93 727.654H1536.45V767.2H1496.93V727.654ZM1496.93 768.214H1536.45V807.76H1496.93V768.214ZM1496.93 808.774H1536.45V848.32H1496.93V808.774ZM1496.93 849.334H1536.45V888.884H1496.93V849.334ZM1496.93 889.898H1536.45V929.444H1496.93V889.898ZM1495.92 889.898V929.444H1456.4V889.898H1495.92ZM1455.38 889.898V929.444H1415.86V889.898H1455.38ZM1414.85 889.898V929.444H1375.32V889.898H1414.85ZM1374.31 889.898V929.444H1334.79V889.898H1374.31ZM1333.78 889.898V929.444H1294.26V889.898H1333.78ZM1293.25 889.898V929.444H1253.73V889.898H1293.25ZM1252.71 889.898V929.444H1213.19V889.898H1252.71ZM1212.18 889.898V929.444H1172.66V889.898H1212.18ZM1171.64 889.898V929.444H1132.12V889.898H1171.64ZM1131.11 889.898V929.444H1091.59V889.898H1131.11ZM1090.57 889.898V929.444H1051.05V889.898H1090.57ZM1050.04 889.898V929.444H1010.52V889.898H1050.04ZM1009.51 889.898V929.444H969.986V889.898H1009.51ZM968.973 889.898V929.444H929.452V889.898H968.973ZM928.439 889.898V929.444H888.918V889.898H928.439ZM887.904 889.898V929.444H848.38V889.898H887.904ZM847.366 889.898V929.444H807.845V889.898H847.366ZM847.366 888.884H807.845V849.334H847.366V888.884ZM847.366 848.32H807.845V808.774H847.366V848.32ZM847.366 807.76H807.845V768.214H847.366V807.76ZM847.366 767.2H807.845V727.654H847.366V767.2ZM847.366 726.64H807.845V687.094H847.366V726.64ZM847.366 686.08H807.845V646.538H847.366V686.08ZM847.366 645.524H807.845V605.978H847.366V645.524ZM847.366 604.964H807.845V565.414H847.366V604.964ZM847.366 564.4H807.845V524.854H847.366V564.4ZM848.38 564.4V524.854H887.904V564.4H848.38ZM888.918 564.4V524.854H928.439V564.4H888.918ZM929.452 564.4V524.854H968.973V564.4H929.452ZM969.986 564.4V524.854H1009.51V564.4H969.986ZM1010.52 564.4V524.854H1050.04V564.4H1010.52ZM1051.05 564.4V524.854H1090.57V564.4H1051.05ZM1091.59 564.4V524.854H1131.11V564.4H1091.59ZM1132.12 564.4V524.854H1171.64V564.4H1132.12ZM1172.66 564.4V524.854H1212.18V564.4H1172.66ZM1213.19 564.4V524.854H1252.71V564.4H1213.19ZM1253.73 564.4V524.854H1293.25V564.4H1253.73ZM1294.26 564.4V524.854H1333.78V564.4H1294.26ZM1334.79 564.4V524.854H1374.31V564.4H1334.79ZM1375.32 564.4V524.854H1414.85V564.4H1375.32ZM1415.86 564.4V524.854H1455.38V564.4H1415.86ZM1456.4 564.4V524.854H1495.92V564.4H1456.4ZM1456.4 565.414H1495.92V604.964H1456.4V565.414ZM1456.4 605.978H1495.92V645.524H1456.4V605.978ZM1456.4 646.538H1495.92V686.08H1456.4V646.538ZM1456.4 687.094H1495.92V726.64H1456.4V687.094ZM1456.4 727.654H1495.92V767.2H1456.4V727.654ZM1456.4 768.214H1495.92V807.76H1456.4V768.214ZM1456.4 808.774H1495.92V848.32H1456.4V808.774ZM1456.4 849.334H1495.92V888.884H1456.4V849.334ZM1455.38 849.334V888.884H1415.86V849.334H1455.38ZM1414.85 849.334V888.884H1375.32V849.334H1414.85ZM1374.31 849.334V888.884H1334.79V849.334H1374.31ZM1333.78 849.334V888.884H1294.26V849.334H1333.78ZM1293.25 849.334V888.884H1253.73V849.334H1293.25ZM1252.71 849.334V888.884H1213.19V849.334H1252.71ZM1212.18 849.334V888.884H1172.66V849.334H1212.18ZM1171.64 849.334V888.884H1132.12V849.334H1171.64ZM1131.11 849.334V888.884H1091.59V849.334H1131.11ZM1090.57 849.334V888.884H1051.05V849.334H1090.57ZM1050.04 849.334V888.884H1010.52V849.334H1050.04ZM1009.51 849.334V888.884H969.986V849.334H1009.51ZM968.973 849.334V888.884H929.452V849.334H968.973ZM928.439 849.334V888.884H888.918V849.334H928.439ZM887.904 849.334V888.884H848.38V849.334H887.904ZM887.904 848.32H848.38V808.774H887.904V848.32ZM887.904 807.76H848.38V768.214H887.904V807.76ZM887.904 767.2H848.38V727.654H887.904V767.2ZM887.904 726.64H848.38V687.094H887.904V726.64ZM887.904 686.08H848.38V646.538H887.904V686.08ZM887.904 645.524H848.38V605.978H887.904V645.524ZM887.904 604.964H848.38V565.414H887.904V604.964ZM888.918 604.964V565.414H928.439V604.964H888.918ZM929.452 604.964V565.414H968.973V604.964H929.452ZM969.986 604.964V565.414H1009.51V604.964H969.986ZM1010.52 604.964V565.414H1050.04V604.964H1010.52ZM1051.05 604.964V565.414H1090.57V604.964H1051.05ZM1091.59 604.964V565.414H1131.11V604.964H1091.59ZM1132.12 604.964V565.414H1171.64V604.964H1132.12ZM1172.66 604.964V565.414H1212.18V604.964H1172.66ZM1213.19 604.964V565.414H1252.71V604.964H1213.19ZM1253.73 604.964V565.414H1293.25V604.964H1253.73ZM1294.26 604.964V565.414H1333.78V604.964H1294.26ZM1334.79 604.964V565.414H1374.31V604.964H1334.79ZM1375.32 604.964V565.414H1414.85V604.964H1375.32ZM1415.86 604.964V565.414H1455.38V604.964H1415.86ZM1415.86 605.978H1455.38V645.524H1415.86V605.978ZM1415.86 646.538H1455.38V686.08H1415.86V646.538ZM1415.86 687.094H1455.38V726.64H1415.86V687.094ZM1415.86 727.654H1455.38V767.2H1415.86V727.654ZM1415.86 768.214H1455.38V807.76H1415.86V768.214ZM1415.86 808.774H1455.38V848.32H1415.86V808.774ZM1414.85 808.774V848.32H1375.32V808.774H1414.85ZM1374.31 808.774V848.32H1334.79V808.774H1374.31ZM1333.78 808.774V848.32H1294.26V808.774H1333.78ZM1293.25 808.774V848.32H1253.73V808.774H1293.25ZM1252.71 808.774V848.32H1213.19V808.774H1252.71ZM1212.18 808.774V848.32H1172.66V808.774H1212.18ZM1171.64 808.774V848.32H1132.12V808.774H1171.64ZM1131.11 808.774V848.32H1091.59V808.774H1131.11ZM1090.57 808.774V848.32H1051.05V808.774H1090.57ZM1050.04 808.774V848.32H1010.52V808.774H1050.04ZM1009.51 808.774V848.32H969.986V808.774H1009.51ZM968.973 808.774V848.32H929.452V808.774H968.973ZM928.439 808.774V848.32H888.918V808.774H928.439ZM928.439 807.76H888.918V768.214H928.439V807.76ZM928.439 767.2H888.918V727.654H928.439V767.2ZM928.439 726.64H888.918V687.094H928.439V726.64ZM928.439 686.08H888.918V646.538H928.439V686.08ZM928.439 645.524H888.918V605.978H928.439V645.524ZM929.452 645.524V605.978H968.973V645.524H929.452ZM969.986 645.524V605.978H1009.51V645.524H969.986ZM1010.52 645.524V605.978H1050.04V645.524H1010.52ZM1051.05 645.524V605.978H1090.57V645.524H1051.05ZM1091.59 645.524V605.978H1131.11V645.524H1091.59ZM1132.12 645.524V605.978H1171.64V645.524H1132.12ZM1172.66 645.524V605.978H1212.18V645.524H1172.66ZM1213.19 645.524V605.978H1252.71V645.524H1213.19ZM1253.73 645.524V605.978H1293.25V645.524H1253.73ZM1294.26 645.524V605.978H1333.78V645.524H1294.26ZM1334.79 645.524V605.978H1374.31V645.524H1334.79ZM1375.32 645.524V605.978H1414.85V645.524H1375.32ZM1375.32 646.538H1414.85V686.08H1375.32V646.538ZM1375.32 687.094H1414.85V726.64H1375.32V687.094ZM1375.32 727.654H1414.85V767.2H1375.32V727.654ZM1375.32 768.214H1414.85V807.76H1375.32V768.214ZM1374.31 768.214V807.76H1334.79V768.214H1374.31ZM1333.78 768.214V807.76H1294.26V768.214H1333.78ZM1293.25 768.214V807.76H1253.73V768.214H1293.25ZM1252.71 768.214V807.76H1213.19V768.214H1252.71ZM1212.18 768.214V807.76H1172.66V768.214H1212.18ZM1171.64 768.214V807.76H1132.12V768.214H1171.64ZM1131.11 768.214V807.76H1091.59V768.214H1131.11ZM1090.57 768.214V807.76H1051.05V768.214H1090.57ZM1050.04 768.214V807.76H1010.52V768.214H1050.04ZM1009.51 768.214V807.76H969.986V768.214H1009.51ZM968.973 768.214V807.76H929.452V768.214H968.973ZM968.973 767.2H929.452V727.654H968.973V767.2ZM968.973 726.64H929.452V687.094H968.973V726.64ZM968.973 686.08H929.452V646.538H968.973V686.08ZM969.986 686.08V646.538H1009.51V686.08H969.986ZM1010.52 686.08V646.538H1050.04V686.08H1010.52ZM1051.05 686.08V646.538H1090.57V686.08H1051.05ZM1091.59 686.08V646.538H1131.11V686.08H1091.59ZM1132.12 686.08V646.538H1171.64V686.08H1132.12ZM1172.66 686.08V646.538H1212.18V686.08H1172.66ZM1213.19 686.08V646.538H1252.71V686.08H1213.19ZM1253.73 686.08V646.538H1293.25V686.08H1253.73ZM1294.26 686.08V646.538H1333.78V686.08H1294.26ZM1334.79 686.08V646.538H1374.31V686.08H1334.79ZM1334.79 687.094H1374.31V726.64H1334.79V687.094ZM1334.79 727.654H1374.31V767.2H1334.79V727.654ZM1333.78 727.654V767.2H1294.26V727.654H1333.78ZM1293.25 727.654V767.2H1253.73V727.654H1293.25ZM1252.71 727.654V767.2H1213.19V727.654H1252.71ZM1212.18 727.654V767.2H1172.66V727.654H1212.18ZM1171.64 727.654V767.2H1132.12V727.654H1171.64ZM1131.11 727.654V767.2H1091.59V727.654H1131.11ZM1090.57 727.654V767.2H1051.05V727.654H1090.57ZM1050.04 727.654V767.2H1010.52V727.654H1050.04ZM1009.51 727.654V767.2H969.986V727.654H1009.51ZM1009.51 726.64H969.986V687.094H1009.51V726.64ZM1010.52 726.64V687.094H1050.04V726.64H1010.52ZM1051.05 726.64V687.094H1090.57V726.64H1051.05ZM1091.59 726.64V687.094H1131.11V726.64H1091.59ZM1132.12 726.64V687.094H1171.64V726.64H1132.12ZM1172.66 726.64V687.094H1212.18V726.64H1172.66ZM1213.19 726.64V687.094H1252.71V726.64H1213.19ZM1253.73 726.64V687.094H1293.25V726.64H1253.73ZM1294.26 726.64V687.094H1333.78V726.64H1294.26ZM766.301 889.898H726.781V929.444H766.301V889.898Z"
              fill="url(#paint3_radial_14_121)"
            />
          </g>
          <defs>
            <radialGradient
              id="paint0_radial_14_121"
              cx="0"
              cy="0"
              r="1"
              gradientUnits="userSpaceOnUse"
              gradientTransform="translate(705.5 463) rotate(90) scale(332.085 571.487)"
            >
              <stop stop-color="#646464" stop-opacity="0.8" />
              <stop offset="1" stop-color="white" stop-opacity="0" />
            </radialGradient>
            <radialGradient
              id="paint1_radial_14_121"
              cx="0"
              cy="0"
              r="1"
              gradientUnits="userSpaceOnUse"
              gradientTransform="translate(705.5 463) rotate(90) scale(332.085 571.487)"
            >
              <stop stop-color="#646464" stop-opacity="0.8" />
              <stop offset="1" stop-color="white" stop-opacity="0" />
            </radialGradient>
            <radialGradient
              id="paint2_radial_14_121"
              cx="0"
              cy="0"
              r="1"
              gradientUnits="userSpaceOnUse"
              gradientTransform="translate(705.5 463) rotate(90) scale(332.085 571.487)"
            >
              <stop stop-color="#646464" stop-opacity="0.8" />
              <stop offset="1" stop-color="white" stop-opacity="0" />
            </radialGradient>
            <radialGradient
              id="paint3_radial_14_121"
              cx="0"
              cy="0"
              r="1"
              gradientUnits="userSpaceOnUse"
              gradientTransform="translate(705.5 463) rotate(90) scale(332.085 571.487)"
            >
              <stop stop-color="#646464" stop-opacity="0.8" />
              <stop offset="1" stop-color="white" stop-opacity="0" />
            </radialGradient>
          </defs>
        </svg>